<svg xmlns="http://www.w3.org/2000/svg" aria-hidden="true" style="width:0;height:0;position:absolute;overflow:hidden"><defs><symbol id="icon-arrow-right" viewBox="0 0 32 32"><path stroke-linecap="round" stroke-linejoin="round" stroke-width="2.667" d="M6.667 16h18.667M16 25.334l9.333-9.333L16 6.668"/></symbol><symbol id="icon-arrow-left" viewBox="0 0 32 32"><path stroke-linecap="round" stroke-linejoin="round" stroke-width="2.667" d="M25.333 16H6.666M16 25.334l-9.333-9.333L16 6.668"/></symbol><symbol id="icon-search" viewBox="0 0 26 28"><path d="M18 13c0-3.859-3.141-7-7-7s-7 3.141-7 7 3.141 7 7 7 7-3.141 7-7zm8 13c0 1.094-.906 2-2 2a1.96 1.96 0 0 1-1.406-.594l-5.359-5.344a10.971 10.971 0 0 1-6.234 1.937c-6.078 0-11-4.922-11-11s4.922-11 11-11 11 4.922 11 11c0 2.219-.672 4.406-1.937 6.234l5.359 5.359c.359.359.578.875.578 1.406z"/></symbol></defs></svg>